<?xml version="1.0" standalone="no"?>
<!DOCTYPE svg PUBLIC "-//W3C//DTD SVG 20010904//EN"
 "http://www.w3.org/TR/2001/REC-SVG-20010904/DTD/svg10.dtd">
<svg version="1.0" xmlns="http://www.w3.org/2000/svg"
 width="437.000000pt" height="437.000000pt" viewBox="0 0 437.000000 437.000000"
 preserveAspectRatio="xMidYMid meet">
<metadata>
Created by potrace 1.11, written by Peter Selinger 2001-2013
</metadata>
<g transform="translate(0.000000,437.000000) scale(0.100000,-0.100000)"
fill="#000000" stroke="none">
<path d="M1077 4363 c-5 -8 -10 -35 -23 -120 -3 -21 -7 -46 -10 -55 -5 -18
-10 -39 -18 -89 -3 -19 -8 -45 -10 -59 -3 -14 -10 -54 -16 -90 -5 -36 -12 -76
-15 -90 -3 -14 -8 -41 -10 -60 -3 -19 -7 -46 -10 -60 -3 -14 -7 -36 -10 -50
-7 -43 -64 -393 -69 -430 -3 -19 -8 -46 -10 -60 -3 -14 -7 -47 -11 -75 -3 -27
-8 -57 -10 -65 -2 -8 -6 -37 -10 -65 -5 -43 -27 -185 -40 -265 -2 -14 -7 -43
-10 -65 -3 -22 -8 -51 -11 -65 -8 -44 -11 -64 -18 -113 -4 -27 -9 -59 -12 -70
-2 -12 -6 -38 -9 -57 -3 -19 -7 -46 -9 -60 -3 -14 -8 -41 -10 -60 -3 -19 -8
-46 -10 -60 -3 -14 -16 -92 -30 -175 -14 -82 -28 -161 -31 -175 -2 -13 -7 -40
-10 -60 -3 -20 -7 -45 -9 -57 -3 -11 -7 -36 -10 -54 -3 -19 -8 -45 -11 -59 -6
-26 -11 -53 -20 -105 -7 -41 -13 -70 -26 -135 -7 -30 -13 -62 -14 -70 -1 -8
-5 -28 -8 -45 -4 -16 -9 -39 -11 -50 -2 -11 -12 -56 -21 -100 -9 -44 -18 -89
-21 -100 -2 -11 -10 -47 -18 -80 -9 -33 -17 -71 -20 -85 -3 -14 -9 -40 -15
-58 -5 -18 -9 -33 -9 -35 1 -1 -4 -18 -10 -37 -5 -19 -18 -62 -28 -95 -9 -33
-20 -64 -24 -70 -4 -5 -10 -23 -14 -40 -4 -16 -11 -32 -15 -35 -9 -5 -160
-263 -217 -370 -11 -19 -22 -37 -25 -40 -4 -3 -9 -15 -13 -27 l-7 -23 2105 0
c1251 0 2106 4 2106 9 0 5 -9 26 -20 48 -11 21 -47 96 -80 168 -83 176 -104
219 -111 225 -3 3 -21 31 -40 64 -19 32 -47 79 -62 105 -55 91 -131 258 -195
427 -41 106 -51 139 -107 324 -25 85 -50 166 -56 180 -5 14 -11 34 -14 45 -6
24 -30 107 -85 285 -70 228 -102 334 -105 350 -2 8 -4 16 -5 18 -2 1 -3 5 -5
10 -1 4 -4 14 -7 22 -10 31 -147 475 -152 495 -1 6 -5 19 -8 30 -4 11 -21 66
-38 122 -17 56 -33 110 -35 120 -3 10 -16 58 -30 107 l-26 89 28 25 c15 13 35
29 44 36 35 24 90 148 115 257 15 68 13 197 -6 257 -29 97 -86 185 -165 251
-44 37 -141 97 -188 117 -42 17 -44 20 -69 98 l-25 81 -881 3 c-484 1 -883 -1
-885 -5z"/>
</g>
</svg>
